<?xml version="1.0" encoding="UTF-8" standalone="no"?>
<svg width="612px" height="612px" viewBox="0 0 612 612" version="1.1" xmlns="http://www.w3.org/2000/svg" xmlns:xlink="http://www.w3.org/1999/xlink">
    <!-- Generator: Sketch 48.1 (47250) - http://www.bohemiancoding.com/sketch -->
    <title>left-arrow</title>
    <desc>Created with Sketch.</desc>
    <defs></defs>
    <g id="Page-1" stroke="none" stroke-width="1" fill="none" fill-rule="evenodd">
        <g id="left-arrow" transform="translate(306.000000, 306.000000) rotate(180.000000) translate(-306.000000, -306.000000) " fill="#000000" fill-rule="nonzero">
            <path d="M306,0 C136.992,0 0,136.992 0,306 C0,475.008 136.992,612 306,612 C474.988,612 612,475.008 612,306 C612,136.992 475.008,0 306,0 Z M306,573.75 C158.125,573.75 38.25,453.875 38.25,306 C38.25,158.125 158.125,38.25 306,38.25 C453.875,38.25 573.75,158.125 573.75,306 C573.75,453.875 453.875,573.75 306,573.75 Z M392.751,142.749 C385.273,135.271 373.167,135.271 365.708,142.749 L219.268,289.189 C214.678,293.779 213.263,300.052 214.315,306 C213.263,311.929 214.697,318.221 219.268,322.811 L365.708,469.251 C373.187,476.71 385.292,476.71 392.751,469.251 C400.229,461.773 400.229,449.667 392.751,442.208 L256.543,306 L392.731,169.811 C400.21,162.333 400.21,150.227 392.751,142.749 Z" id="Shape"></path>
        </g>
    </g>
</svg>